<svg width="500" height="500" viewBox="0 0 500 500" fill="none" xmlns="http://www.w3.org/2000/svg">
<mask id="mask0_1_118" style="mask-type:luminance" maskUnits="userSpaceOnUse" x="299" y="121" width="45" height="258">
<path d="M299.286 121.333H344V378.667H299.286V121.333Z" fill="white"/>
</mask>
<g mask="url(#mask0_1_118)">
<path d="M211.297 378.651C209.177 378.641 207.276 377.984 205.599 376.682C205.151 376.349 204.74 375.984 204.365 375.578C203.984 375.172 203.646 374.74 203.344 374.271C203.042 373.807 202.786 373.318 202.573 372.802C202.365 372.292 202.198 371.766 202.083 371.219C201.969 370.677 201.901 370.13 201.88 369.578C201.865 369.021 201.896 368.469 201.979 367.922C202.063 367.375 202.193 366.839 202.375 366.313C202.552 365.786 202.776 365.286 203.047 364.802L203.094 364.724L259.016 265.693H205.693C204.776 265.693 203.875 265.557 202.995 265.292C202.12 265.026 201.297 264.641 200.531 264.13C199.766 263.62 199.089 263.016 198.505 262.307C197.917 261.599 197.448 260.823 197.089 259.974C196.734 259.13 196.505 258.25 196.406 257.339C196.307 256.422 196.344 255.516 196.516 254.615C196.682 253.708 196.979 252.849 197.401 252.036C197.823 251.219 198.354 250.484 198.995 249.823L312.604 124.62L312.766 124.443C313.151 124.063 313.563 123.719 314.005 123.406C314.448 123.094 314.917 122.823 315.406 122.594C315.896 122.365 316.401 122.182 316.922 122.036C317.443 121.896 317.974 121.802 318.51 121.75C319.052 121.703 319.589 121.698 320.13 121.74C320.667 121.786 321.198 121.875 321.724 122.01C322.25 122.146 322.755 122.328 323.25 122.552C323.74 122.776 324.208 123.036 324.656 123.344C325.104 123.651 325.521 123.99 325.906 124.37C326.297 124.745 326.646 125.156 326.964 125.594C327.281 126.031 327.557 126.495 327.792 126.979C328.026 127.469 328.219 127.969 328.37 128.49C328.521 129.01 328.62 129.542 328.677 130.078C328.734 130.615 328.745 131.156 328.714 131.693C328.677 132.234 328.594 132.766 328.464 133.292C328.333 133.818 328.162 134.328 327.943 134.823L327.88 134.969L283.703 227.354H330.625C331.917 227.354 333.182 227.542 334.422 227.917C335.656 228.286 336.818 228.833 337.891 229.547C338.969 230.26 339.922 231.115 340.75 232.109C341.573 233.104 342.24 234.198 342.745 235.385C343.25 236.578 343.573 237.818 343.708 239.099C343.849 240.385 343.802 241.661 343.568 242.932C343.328 244.208 342.917 245.417 342.323 246.563C341.729 247.714 340.984 248.755 340.089 249.682L217.865 375.849L217.724 375.99C216.865 376.828 215.88 377.479 214.771 377.943C213.656 378.401 212.5 378.641 211.297 378.651ZM206.333 256.047H259.505C259.906 256.047 260.307 256.073 260.708 256.125C261.109 256.177 261.5 256.255 261.891 256.359C262.281 256.464 262.661 256.589 263.036 256.74C263.411 256.896 263.771 257.068 264.12 257.271C264.474 257.469 264.807 257.688 265.13 257.932C265.453 258.172 265.755 258.438 266.047 258.719C266.333 259 266.604 259.302 266.849 259.615C267.099 259.932 267.328 260.266 267.536 260.609C267.74 260.958 267.922 261.318 268.083 261.688C268.245 262.057 268.38 262.432 268.49 262.823C268.604 263.208 268.688 263.604 268.75 264C268.807 264.401 268.844 264.802 268.854 265.203C268.859 265.604 268.844 266.01 268.802 266.411C268.755 266.807 268.688 267.208 268.594 267.599C268.5 267.99 268.38 268.375 268.234 268.75C268.094 269.125 267.922 269.495 267.734 269.849L267.688 269.927L212.609 367.453L333.156 242.984C333.651 242.474 333.964 241.87 334.094 241.172C334.224 240.474 334.151 239.797 333.875 239.146C333.594 238.49 333.162 237.969 332.568 237.573C331.974 237.182 331.323 236.99 330.615 236.99H283.25C282.865 236.99 282.479 236.964 282.094 236.917C281.708 236.87 281.328 236.797 280.953 236.703C280.578 236.609 280.214 236.49 279.849 236.349C279.49 236.208 279.141 236.047 278.797 235.859C278.458 235.677 278.13 235.474 277.813 235.245C277.5 235.021 277.198 234.776 276.917 234.516C276.63 234.255 276.365 233.974 276.115 233.677C275.859 233.385 275.63 233.073 275.417 232.75C275.208 232.427 275.016 232.089 274.844 231.74C274.677 231.396 274.526 231.036 274.401 230.672C274.276 230.307 274.172 229.932 274.094 229.552C274.016 229.172 273.958 228.792 273.927 228.406C273.896 228.021 273.885 227.635 273.901 227.245C273.917 226.859 273.958 226.474 274.021 226.094C274.089 225.714 274.172 225.333 274.281 224.964C274.396 224.594 274.526 224.229 274.682 223.875L274.75 223.729L318.292 132.698L206.333 256.047Z" fill="#74B8FF"/>
</g>
<mask id="mask1_1_118" style="mask-type:luminance" maskUnits="userSpaceOnUse" x="196" y="346" width="148" height="33">
<path d="M196 346.849H344V378.359H196V346.849Z" fill="white"/>
</mask>
<g mask="url(#mask1_1_118)">
<path d="M211.224 378.651C209.099 378.641 207.203 377.984 205.526 376.682C205.078 376.349 204.667 375.984 204.286 375.578C203.911 375.172 203.568 374.74 203.271 374.271C202.969 373.807 202.714 373.318 202.5 372.802C202.292 372.292 202.125 371.766 202.01 371.219C201.891 370.677 201.823 370.13 201.807 369.578C201.792 369.021 201.823 368.469 201.906 367.922C201.99 367.375 202.12 366.839 202.297 366.313C202.479 365.786 202.703 365.286 202.974 364.802L203.016 364.724L258.943 265.693H205.62C204.703 265.693 203.802 265.557 202.922 265.292C202.042 265.026 201.224 264.641 200.458 264.13C199.693 263.62 199.016 263.016 198.432 262.307C197.844 261.599 197.375 260.823 197.016 259.974C196.656 259.13 196.432 258.25 196.333 257.339C196.234 256.422 196.271 255.516 196.438 254.615C196.609 253.708 196.906 252.849 197.328 252.036C197.75 251.219 198.281 250.484 198.922 249.823L312.531 124.62L312.693 124.443C313.073 124.063 313.49 123.719 313.932 123.406C314.375 123.094 314.839 122.823 315.328 122.594C315.818 122.365 316.328 122.182 316.849 122.036C317.37 121.896 317.901 121.802 318.438 121.75C318.979 121.703 319.516 121.698 320.057 121.74C320.594 121.786 321.125 121.875 321.651 122.01C322.172 122.146 322.682 122.328 323.172 122.552C323.667 122.776 324.135 123.036 324.583 123.344C325.031 123.651 325.448 123.99 325.833 124.37C326.219 124.745 326.573 125.156 326.891 125.594C327.203 126.031 327.479 126.495 327.719 126.979C327.953 127.469 328.146 127.969 328.297 128.49C328.443 129.01 328.547 129.542 328.604 130.078C328.661 130.615 328.672 131.156 328.635 131.693C328.599 132.234 328.516 132.766 328.391 133.292C328.26 133.818 328.089 134.328 327.87 134.823L327.802 134.969L283.63 227.354H330.552C331.844 227.354 333.109 227.542 334.344 227.917C335.583 228.286 336.74 228.833 337.818 229.547C338.896 230.26 339.849 231.115 340.672 232.109C341.5 233.104 342.167 234.198 342.672 235.385C343.172 236.578 343.495 237.818 343.635 239.099C343.776 240.385 343.729 241.661 343.495 242.932C343.255 244.208 342.844 245.417 342.25 246.563C341.656 247.714 340.911 248.755 340.016 249.682L217.792 375.849L217.651 375.99C216.792 376.828 215.807 377.484 214.693 377.943C213.583 378.401 212.427 378.641 211.224 378.651ZM206.26 256.047H259.427C259.833 256.047 260.234 256.073 260.635 256.125C261.031 256.177 261.427 256.255 261.818 256.359C262.208 256.464 262.589 256.589 262.964 256.74C263.333 256.896 263.698 257.068 264.047 257.271C264.396 257.469 264.734 257.688 265.057 257.932C265.38 258.177 265.682 258.438 265.969 258.719C266.26 259 266.526 259.302 266.776 259.615C267.026 259.932 267.255 260.266 267.458 260.609C267.667 260.958 267.849 261.318 268.01 261.688C268.172 262.057 268.307 262.432 268.417 262.823C268.526 263.208 268.615 263.604 268.677 264C268.734 264.401 268.771 264.802 268.776 265.203C268.786 265.604 268.771 266.01 268.724 266.411C268.682 266.807 268.615 267.208 268.521 267.599C268.427 267.99 268.307 268.375 268.161 268.75C268.016 269.125 267.849 269.495 267.656 269.849L267.615 269.927L212.536 367.453L333.078 242.984C333.573 242.474 333.885 241.87 334.016 241.172C334.151 240.474 334.073 239.797 333.797 239.146C333.521 238.49 333.089 237.969 332.495 237.573C331.901 237.182 331.25 236.99 330.542 236.99H283.177C282.792 236.99 282.406 236.964 282.021 236.917C281.635 236.87 281.255 236.797 280.88 236.703C280.505 236.609 280.135 236.49 279.776 236.349C279.417 236.208 279.063 236.047 278.724 235.859C278.385 235.677 278.057 235.474 277.74 235.245C277.427 235.021 277.125 234.776 276.839 234.516C276.557 234.255 276.286 233.974 276.036 233.677C275.786 233.385 275.557 233.073 275.344 232.75C275.135 232.427 274.943 232.089 274.771 231.745C274.604 231.396 274.453 231.036 274.328 230.672C274.203 230.307 274.099 229.932 274.021 229.552C273.943 229.172 273.885 228.792 273.854 228.406C273.823 228.021 273.813 227.635 273.828 227.245C273.844 226.859 273.885 226.474 273.948 226.094C274.01 225.714 274.099 225.333 274.208 224.964C274.318 224.594 274.453 224.229 274.609 223.875L274.677 223.729L318.219 132.698L206.26 256.047Z" fill="#74B8FF"/>
</g>
<mask id="mask2_1_118" style="mask-type:luminance" maskUnits="userSpaceOnUse" x="269" y="190" width="75" height="51">
<path d="M269.198 190.156H344V240.047H269.198V190.156Z" fill="white"/>
</mask>
<g mask="url(#mask2_1_118)">
<path d="M211.297 378.651C209.177 378.641 207.276 377.984 205.599 376.682C205.151 376.349 204.74 375.984 204.365 375.578C203.984 375.172 203.646 374.74 203.344 374.271C203.042 373.807 202.786 373.318 202.573 372.802C202.365 372.292 202.198 371.766 202.083 371.219C201.969 370.677 201.901 370.13 201.88 369.578C201.865 369.021 201.896 368.469 201.979 367.922C202.062 367.375 202.193 366.839 202.375 366.313C202.552 365.786 202.776 365.286 203.047 364.802L203.094 364.724L259.016 265.693H205.693C204.776 265.693 203.875 265.557 202.995 265.292C202.12 265.026 201.297 264.641 200.531 264.13C199.766 263.62 199.089 263.016 198.505 262.307C197.917 261.599 197.448 260.823 197.089 259.974C196.734 259.13 196.505 258.25 196.406 257.339C196.307 256.422 196.344 255.516 196.516 254.615C196.682 253.708 196.979 252.849 197.401 252.036C197.823 251.219 198.354 250.484 198.995 249.823L312.604 124.62L312.766 124.443C313.151 124.063 313.562 123.719 314.005 123.406C314.448 123.094 314.917 122.823 315.406 122.594C315.896 122.365 316.401 122.182 316.922 122.036C317.443 121.896 317.974 121.802 318.51 121.75C319.052 121.703 319.589 121.698 320.13 121.74C320.667 121.786 321.198 121.875 321.724 122.01C322.25 122.146 322.755 122.328 323.25 122.552C323.74 122.776 324.208 123.036 324.656 123.344C325.104 123.651 325.521 123.99 325.906 124.37C326.297 124.745 326.646 125.156 326.964 125.594C327.281 126.031 327.557 126.495 327.792 126.979C328.026 127.469 328.219 127.969 328.37 128.49C328.521 129.01 328.62 129.542 328.677 130.078C328.734 130.615 328.745 131.156 328.714 131.693C328.677 132.234 328.594 132.766 328.464 133.292C328.333 133.818 328.161 134.328 327.943 134.823L327.88 134.969L283.703 227.354H330.625C331.917 227.354 333.182 227.542 334.422 227.917C335.656 228.286 336.818 228.833 337.891 229.547C338.969 230.26 339.922 231.115 340.75 232.109C341.573 233.104 342.24 234.198 342.745 235.385C343.25 236.578 343.573 237.818 343.708 239.099C343.849 240.385 343.802 241.661 343.568 242.932C343.328 244.208 342.917 245.417 342.323 246.563C341.729 247.714 340.984 248.755 340.089 249.682L217.865 375.849L217.724 375.99C216.865 376.828 215.88 377.484 214.771 377.943C213.656 378.401 212.5 378.641 211.297 378.651ZM206.333 256.047H259.505C259.906 256.047 260.307 256.073 260.708 256.125C261.109 256.177 261.5 256.255 261.891 256.359C262.281 256.464 262.661 256.589 263.036 256.74C263.411 256.896 263.771 257.068 264.12 257.271C264.474 257.469 264.807 257.688 265.13 257.932C265.453 258.172 265.755 258.438 266.047 258.719C266.333 259 266.604 259.302 266.849 259.615C267.099 259.932 267.328 260.266 267.536 260.609C267.74 260.958 267.922 261.318 268.083 261.688C268.245 262.057 268.38 262.432 268.49 262.823C268.604 263.208 268.687 263.604 268.75 264C268.807 264.401 268.844 264.802 268.854 265.203C268.859 265.604 268.844 266.01 268.802 266.411C268.755 266.807 268.687 267.208 268.594 267.599C268.5 267.99 268.38 268.375 268.234 268.75C268.094 269.125 267.922 269.495 267.734 269.849L267.687 269.927L212.609 367.453L333.156 242.984C333.651 242.474 333.964 241.87 334.094 241.172C334.224 240.474 334.151 239.797 333.875 239.146C333.594 238.49 333.161 237.969 332.568 237.573C331.974 237.182 331.323 236.99 330.615 236.99H283.25C282.865 236.99 282.479 236.964 282.094 236.917C281.708 236.87 281.328 236.797 280.953 236.703C280.578 236.609 280.214 236.49 279.849 236.349C279.49 236.208 279.141 236.047 278.797 235.859C278.458 235.677 278.13 235.474 277.812 235.245C277.5 235.021 277.198 234.776 276.917 234.516C276.63 234.255 276.365 233.974 276.115 233.677C275.859 233.385 275.63 233.073 275.417 232.75C275.208 232.427 275.016 232.089 274.844 231.74C274.677 231.396 274.526 231.036 274.401 230.672C274.276 230.307 274.172 229.932 274.094 229.552C274.016 229.172 273.958 228.792 273.927 228.406C273.896 228.021 273.885 227.635 273.901 227.245C273.917 226.859 273.958 226.474 274.021 226.094C274.089 225.714 274.172 225.333 274.281 224.964C274.396 224.594 274.526 224.229 274.682 223.875L274.75 223.729L318.292 132.698L206.333 256.047Z" fill="#74B8FF"/>
</g>
<mask id="mask3_1_118" style="mask-type:luminance" maskUnits="userSpaceOnUse" x="290" y="167" width="54" height="73">
<path d="M290.818 167.286H344V239.932H290.818V167.286Z" fill="white"/>
</mask>
<g mask="url(#mask3_1_118)">
<path d="M211.297 378.651C209.177 378.641 207.276 377.984 205.599 376.682C205.151 376.349 204.74 375.984 204.365 375.578C203.984 375.172 203.646 374.74 203.344 374.271C203.042 373.807 202.786 373.318 202.573 372.802C202.365 372.292 202.198 371.766 202.083 371.219C201.969 370.677 201.901 370.13 201.88 369.578C201.865 369.021 201.896 368.469 201.979 367.922C202.063 367.375 202.193 366.839 202.375 366.313C202.552 365.786 202.776 365.286 203.047 364.802L203.094 364.724L259.016 265.693H205.693C204.776 265.693 203.875 265.557 202.995 265.292C202.12 265.026 201.297 264.641 200.531 264.13C199.766 263.62 199.089 263.016 198.505 262.307C197.917 261.599 197.448 260.823 197.089 259.974C196.734 259.13 196.505 258.25 196.406 257.339C196.307 256.422 196.344 255.516 196.516 254.615C196.682 253.708 196.979 252.849 197.401 252.036C197.823 251.219 198.354 250.484 198.995 249.823L312.604 124.62L312.766 124.443C313.151 124.063 313.563 123.719 314.005 123.406C314.448 123.094 314.917 122.823 315.406 122.594C315.896 122.365 316.401 122.182 316.922 122.036C317.443 121.896 317.974 121.802 318.51 121.75C319.052 121.703 319.589 121.698 320.13 121.74C320.667 121.786 321.198 121.875 321.724 122.01C322.25 122.146 322.755 122.328 323.25 122.552C323.74 122.776 324.208 123.036 324.656 123.344C325.104 123.651 325.521 123.99 325.906 124.37C326.297 124.745 326.646 125.156 326.964 125.594C327.281 126.031 327.557 126.495 327.792 126.979C328.026 127.469 328.219 127.969 328.37 128.49C328.521 129.01 328.62 129.542 328.677 130.078C328.734 130.615 328.745 131.156 328.714 131.693C328.677 132.234 328.594 132.766 328.464 133.292C328.333 133.818 328.162 134.328 327.943 134.823L327.88 134.969L283.703 227.354H330.625C331.917 227.354 333.182 227.542 334.422 227.917C335.656 228.286 336.818 228.833 337.891 229.547C338.969 230.26 339.922 231.115 340.75 232.109C341.573 233.104 342.24 234.198 342.745 235.385C343.25 236.578 343.573 237.818 343.708 239.099C343.849 240.385 343.802 241.661 343.568 242.932C343.328 244.208 342.917 245.417 342.323 246.563C341.729 247.714 340.984 248.755 340.089 249.682L217.865 375.849L217.724 375.99C216.865 376.828 215.88 377.484 214.771 377.943C213.656 378.401 212.5 378.641 211.297 378.651ZM206.333 256.047H259.505C259.906 256.047 260.307 256.073 260.708 256.125C261.109 256.177 261.5 256.255 261.891 256.359C262.281 256.464 262.661 256.589 263.036 256.74C263.411 256.896 263.771 257.068 264.12 257.271C264.474 257.469 264.807 257.688 265.13 257.932C265.453 258.172 265.755 258.438 266.047 258.719C266.333 259 266.604 259.302 266.849 259.615C267.099 259.932 267.328 260.266 267.536 260.609C267.74 260.958 267.922 261.318 268.083 261.688C268.245 262.057 268.38 262.432 268.49 262.823C268.604 263.208 268.688 263.604 268.75 264C268.807 264.401 268.844 264.802 268.854 265.203C268.859 265.604 268.844 266.01 268.802 266.411C268.755 266.807 268.688 267.208 268.594 267.599C268.5 267.99 268.38 268.375 268.234 268.75C268.094 269.125 267.922 269.495 267.734 269.849L267.688 269.927L212.609 367.453L333.156 242.984C333.651 242.474 333.964 241.87 334.094 241.172C334.224 240.474 334.151 239.797 333.875 239.146C333.594 238.49 333.162 237.969 332.568 237.573C331.974 237.182 331.323 236.99 330.615 236.99H283.25C282.865 236.99 282.479 236.964 282.094 236.917C281.708 236.87 281.328 236.797 280.953 236.703C280.578 236.609 280.214 236.49 279.849 236.349C279.49 236.208 279.141 236.047 278.797 235.859C278.458 235.677 278.13 235.474 277.813 235.245C277.5 235.021 277.198 234.776 276.917 234.516C276.63 234.255 276.365 233.974 276.115 233.677C275.859 233.385 275.63 233.073 275.417 232.75C275.208 232.427 275.016 232.089 274.844 231.74C274.677 231.396 274.526 231.036 274.401 230.672C274.276 230.307 274.172 229.932 274.094 229.552C274.016 229.172 273.958 228.792 273.927 228.406C273.896 228.021 273.885 227.635 273.901 227.245C273.917 226.859 273.958 226.474 274.021 226.094C274.089 225.714 274.172 225.333 274.281 224.964C274.396 224.594 274.526 224.229 274.682 223.875L274.75 223.729L318.292 132.698L206.333 256.047Z" fill="#74B8FF"/>
</g>
<mask id="mask4_1_118" style="mask-type:luminance" maskUnits="userSpaceOnUse" x="230" y="339" width="94" height="27">
<path d="M230.141 339.667H323.797V365.922H230.141V339.667Z" fill="white"/>
</mask>
<g mask="url(#mask4_1_118)">
<path d="M212.453 377.396C210.328 377.385 208.427 376.729 206.75 375.427C206.307 375.094 205.896 374.729 205.516 374.323C205.135 373.917 204.797 373.484 204.495 373.016C204.198 372.552 203.937 372.062 203.729 371.547C203.516 371.036 203.354 370.51 203.234 369.969C203.12 369.427 203.052 368.875 203.036 368.323C203.016 367.771 203.052 367.219 203.13 366.667C203.214 366.12 203.344 365.583 203.526 365.057C203.703 364.536 203.927 364.031 204.198 363.547L204.245 363.469L260.172 264.437H206.844C205.927 264.437 205.031 264.302 204.151 264.036C203.271 263.771 202.448 263.385 201.682 262.875C200.917 262.37 200.245 261.76 199.656 261.052C199.073 260.344 198.599 259.568 198.245 258.724C197.885 257.875 197.656 256.995 197.562 256.083C197.464 255.172 197.5 254.26 197.667 253.359C197.839 252.458 198.13 251.599 198.552 250.781C198.979 249.964 199.505 249.229 200.146 248.568L313.755 123.365L313.917 123.193C314.302 122.807 314.714 122.464 315.156 122.151C315.599 121.844 316.068 121.573 316.557 121.344C317.047 121.115 317.552 120.927 318.073 120.786C318.599 120.641 319.125 120.547 319.667 120.495C320.203 120.448 320.745 120.443 321.281 120.49C321.823 120.531 322.354 120.62 322.875 120.755C323.401 120.891 323.906 121.073 324.401 121.297C324.891 121.521 325.365 121.786 325.807 122.089C326.255 122.396 326.672 122.734 327.062 123.115C327.448 123.49 327.797 123.901 328.115 124.339C328.432 124.776 328.708 125.24 328.943 125.724C329.182 126.214 329.375 126.719 329.521 127.234C329.672 127.755 329.776 128.286 329.833 128.823C329.891 129.359 329.901 129.901 329.865 130.437C329.828 130.979 329.745 131.51 329.615 132.036C329.49 132.562 329.312 133.073 329.099 133.568L329.031 133.714L284.854 226.099H331.776C333.073 226.099 334.333 226.286 335.573 226.661C336.812 227.036 337.969 227.578 339.047 228.292C340.125 229.005 341.073 229.859 341.901 230.854C342.729 231.849 343.391 232.943 343.896 234.135C344.401 235.323 344.724 236.562 344.865 237.849C345.005 239.13 344.953 240.411 344.719 241.682C344.484 242.953 344.068 244.161 343.474 245.312C342.885 246.458 342.141 247.5 341.24 248.427L219.016 374.594L218.875 374.734C218.021 375.578 217.031 376.229 215.922 376.687C214.812 377.151 213.656 377.385 212.453 377.396ZM207.49 254.792H260.656C261.057 254.792 261.458 254.818 261.859 254.87C262.26 254.922 262.656 255 263.047 255.104C263.432 255.208 263.818 255.333 264.187 255.49C264.562 255.641 264.922 255.818 265.276 256.016C265.625 256.214 265.964 256.437 266.281 256.677C266.604 256.922 266.911 257.182 267.198 257.464C267.484 257.745 267.755 258.047 268.005 258.365C268.255 258.682 268.479 259.01 268.687 259.359C268.896 259.703 269.078 260.062 269.24 260.432C269.396 260.802 269.531 261.182 269.646 261.568C269.755 261.953 269.844 262.349 269.901 262.745C269.964 263.146 269.995 263.547 270.005 263.948C270.016 264.354 269.995 264.755 269.953 265.156C269.911 265.557 269.839 265.953 269.745 266.344C269.651 266.734 269.531 267.12 269.391 267.495C269.245 267.875 269.078 268.24 268.885 268.594L268.839 268.672L213.766 366.198L334.307 241.729C334.802 241.219 335.115 240.615 335.245 239.917C335.375 239.219 335.302 238.542 335.026 237.891C334.75 237.234 334.312 236.714 333.719 236.323C333.13 235.927 332.479 235.734 331.766 235.734H284.406C284.016 235.734 283.63 235.708 283.245 235.661C282.865 235.615 282.484 235.542 282.109 235.448C281.734 235.354 281.365 235.234 281.005 235.094C280.641 234.953 280.292 234.792 279.953 234.609C279.609 234.422 279.281 234.219 278.969 233.995C278.651 233.771 278.354 233.526 278.068 233.26C277.781 233 277.516 232.719 277.266 232.427C277.016 232.13 276.781 231.823 276.573 231.495C276.359 231.172 276.167 230.839 276 230.49C275.828 230.141 275.682 229.781 275.557 229.417C275.427 229.052 275.328 228.677 275.245 228.297C275.167 227.922 275.109 227.536 275.078 227.151C275.047 226.766 275.042 226.38 275.057 225.995C275.073 225.604 275.109 225.224 275.177 224.839C275.24 224.458 275.328 224.083 275.437 223.708C275.547 223.339 275.677 222.974 275.833 222.62L275.901 222.474L319.448 131.443L207.49 254.792Z" fill="#74B8FF"/>
</g>
<mask id="mask5_1_118" style="mask-type:luminance" maskUnits="userSpaceOnUse" x="266" y="277" width="78" height="102">
<path d="M266.255 277.396H344V378.667H266.255V277.396Z" fill="white"/>
</mask>
<g mask="url(#mask5_1_118)">
<path d="M211.297 378.651C209.177 378.641 207.276 377.984 205.599 376.682C205.151 376.349 204.74 375.984 204.365 375.578C203.984 375.172 203.646 374.74 203.344 374.271C203.042 373.807 202.786 373.318 202.573 372.802C202.365 372.292 202.198 371.766 202.083 371.219C201.969 370.677 201.901 370.13 201.88 369.578C201.865 369.021 201.896 368.469 201.979 367.922C202.063 367.375 202.193 366.839 202.375 366.313C202.552 365.786 202.776 365.286 203.047 364.802L203.094 364.724L259.016 265.693H205.693C204.776 265.693 203.875 265.557 202.995 265.292C202.12 265.026 201.297 264.641 200.531 264.13C199.766 263.62 199.089 263.016 198.505 262.307C197.917 261.599 197.448 260.823 197.089 259.974C196.734 259.13 196.505 258.25 196.406 257.339C196.307 256.422 196.344 255.516 196.516 254.615C196.682 253.708 196.979 252.849 197.401 252.036C197.823 251.219 198.354 250.484 198.995 249.823L312.604 124.62L312.766 124.443C313.151 124.063 313.563 123.719 314.005 123.406C314.448 123.094 314.917 122.823 315.406 122.594C315.896 122.365 316.401 122.182 316.922 122.036C317.443 121.896 317.974 121.802 318.51 121.75C319.052 121.703 319.589 121.698 320.13 121.74C320.667 121.786 321.198 121.875 321.724 122.01C322.25 122.146 322.755 122.328 323.25 122.552C323.74 122.776 324.208 123.036 324.656 123.344C325.104 123.651 325.521 123.99 325.906 124.37C326.297 124.745 326.646 125.156 326.964 125.594C327.281 126.031 327.557 126.495 327.792 126.979C328.026 127.469 328.219 127.969 328.37 128.49C328.521 129.01 328.62 129.542 328.677 130.078C328.734 130.615 328.745 131.156 328.714 131.693C328.677 132.234 328.594 132.766 328.464 133.292C328.333 133.818 328.162 134.328 327.943 134.823L327.88 134.969L283.703 227.354H330.625C331.917 227.354 333.182 227.542 334.422 227.917C335.656 228.286 336.818 228.833 337.896 229.547C338.969 230.26 339.922 231.115 340.75 232.109C341.573 233.104 342.24 234.198 342.745 235.385C343.25 236.578 343.573 237.818 343.708 239.099C343.849 240.385 343.802 241.661 343.568 242.932C343.328 244.208 342.917 245.417 342.323 246.563C341.729 247.714 340.984 248.755 340.089 249.682L217.865 375.849L217.724 375.99C216.865 376.828 215.88 377.484 214.771 377.943C213.656 378.401 212.5 378.641 211.297 378.651ZM206.333 256.047H259.505C259.906 256.047 260.307 256.073 260.708 256.125C261.109 256.177 261.5 256.255 261.891 256.359C262.281 256.464 262.661 256.589 263.036 256.74C263.411 256.896 263.771 257.068 264.12 257.271C264.474 257.469 264.807 257.688 265.13 257.932C265.453 258.172 265.755 258.438 266.047 258.719C266.333 259 266.604 259.302 266.849 259.615C267.099 259.932 267.328 260.266 267.536 260.609C267.74 260.958 267.922 261.318 268.083 261.688C268.245 262.057 268.38 262.432 268.49 262.823C268.604 263.208 268.688 263.604 268.75 264C268.807 264.401 268.844 264.802 268.854 265.203C268.859 265.604 268.844 266.01 268.802 266.411C268.755 266.807 268.688 267.208 268.594 267.599C268.5 267.99 268.38 268.375 268.234 268.75C268.094 269.125 267.922 269.495 267.734 269.849L267.688 269.927L212.609 367.453L333.156 242.984C333.651 242.474 333.964 241.87 334.094 241.172C334.224 240.474 334.151 239.797 333.875 239.146C333.594 238.49 333.162 237.969 332.568 237.573C331.974 237.182 331.323 236.99 330.615 236.99H283.25C282.865 236.99 282.479 236.964 282.094 236.917C281.708 236.87 281.328 236.797 280.953 236.703C280.578 236.609 280.214 236.49 279.849 236.349C279.49 236.208 279.141 236.047 278.797 235.859C278.458 235.677 278.13 235.474 277.818 235.245C277.5 235.021 277.198 234.776 276.917 234.516C276.63 234.255 276.365 233.974 276.115 233.677C275.859 233.385 275.63 233.073 275.417 232.75C275.208 232.427 275.016 232.089 274.844 231.74C274.677 231.396 274.526 231.036 274.401 230.672C274.276 230.307 274.172 229.932 274.094 229.552C274.016 229.172 273.958 228.792 273.927 228.406C273.896 228.021 273.885 227.635 273.901 227.245C273.917 226.859 273.958 226.474 274.021 226.094C274.089 225.714 274.172 225.333 274.281 224.964C274.396 224.594 274.526 224.229 274.682 223.875L274.75 223.729L318.292 132.698L206.333 256.047Z" fill="#74B8FF"/>
</g>
<mask id="mask6_1_118" style="mask-type:luminance" maskUnits="userSpaceOnUse" x="237" y="332" width="107" height="47">
<path d="M237.458 332.448H344V378.667H237.458V332.448Z" fill="white"/>
</mask>
<g mask="url(#mask6_1_118)">
<path d="M211.297 378.651C209.177 378.641 207.276 377.984 205.599 376.682C205.151 376.349 204.74 375.984 204.365 375.578C203.984 375.172 203.646 374.74 203.344 374.271C203.042 373.807 202.786 373.318 202.573 372.802C202.365 372.292 202.198 371.766 202.083 371.219C201.969 370.677 201.901 370.13 201.88 369.578C201.865 369.021 201.896 368.469 201.979 367.922C202.062 367.375 202.193 366.839 202.375 366.313C202.552 365.786 202.776 365.286 203.047 364.802L203.094 364.724L259.016 265.693H205.693C204.776 265.693 203.875 265.557 202.995 265.292C202.12 265.026 201.297 264.641 200.531 264.13C199.766 263.62 199.089 263.016 198.505 262.307C197.917 261.599 197.448 260.823 197.089 259.974C196.734 259.13 196.505 258.25 196.406 257.339C196.307 256.422 196.344 255.516 196.516 254.615C196.682 253.708 196.979 252.849 197.401 252.036C197.823 251.219 198.354 250.484 198.995 249.823L312.604 124.62L312.766 124.443C313.151 124.063 313.562 123.719 314.005 123.406C314.448 123.094 314.917 122.823 315.406 122.594C315.896 122.365 316.401 122.182 316.922 122.036C317.443 121.896 317.974 121.802 318.51 121.75C319.052 121.703 319.589 121.698 320.13 121.74C320.667 121.786 321.198 121.875 321.724 122.01C322.25 122.146 322.755 122.328 323.25 122.552C323.74 122.776 324.208 123.036 324.656 123.344C325.104 123.651 325.521 123.99 325.906 124.37C326.297 124.745 326.646 125.156 326.964 125.594C327.281 126.031 327.557 126.495 327.792 126.979C328.026 127.469 328.219 127.969 328.37 128.49C328.521 129.01 328.62 129.542 328.677 130.078C328.734 130.615 328.745 131.156 328.714 131.693C328.677 132.234 328.594 132.766 328.464 133.292C328.333 133.818 328.161 134.328 327.943 134.823L327.88 134.969L283.703 227.354H330.625C331.917 227.354 333.182 227.542 334.422 227.917C335.656 228.286 336.818 228.833 337.891 229.547C338.969 230.26 339.922 231.115 340.75 232.109C341.573 233.104 342.24 234.198 342.745 235.385C343.25 236.578 343.573 237.818 343.708 239.099C343.849 240.385 343.802 241.661 343.568 242.932C343.328 244.208 342.917 245.417 342.323 246.563C341.729 247.714 340.984 248.755 340.089 249.682L217.865 375.849L217.724 375.99C216.865 376.828 215.88 377.484 214.771 377.943C213.656 378.401 212.5 378.641 211.297 378.651ZM206.333 256.047H259.505C259.906 256.047 260.307 256.073 260.708 256.125C261.109 256.177 261.5 256.255 261.891 256.359C262.281 256.464 262.661 256.589 263.036 256.74C263.411 256.896 263.771 257.068 264.12 257.271C264.474 257.469 264.807 257.688 265.13 257.932C265.453 258.172 265.755 258.438 266.047 258.719C266.333 259 266.604 259.302 266.849 259.615C267.099 259.932 267.328 260.266 267.536 260.609C267.74 260.958 267.922 261.318 268.083 261.688C268.245 262.057 268.38 262.432 268.49 262.823C268.604 263.208 268.687 263.604 268.75 264C268.807 264.401 268.844 264.802 268.854 265.203C268.859 265.604 268.844 266.01 268.802 266.411C268.755 266.807 268.687 267.208 268.594 267.599C268.5 267.99 268.38 268.375 268.234 268.75C268.094 269.125 267.922 269.495 267.734 269.849L267.687 269.927L212.609 367.453L333.156 242.984C333.651 242.474 333.964 241.87 334.094 241.172C334.224 240.474 334.151 239.797 333.875 239.146C333.594 238.49 333.161 237.969 332.568 237.573C331.974 237.182 331.323 236.99 330.615 236.99H283.25C282.865 236.99 282.479 236.964 282.094 236.917C281.708 236.87 281.328 236.797 280.953 236.703C280.578 236.609 280.214 236.49 279.849 236.349C279.49 236.208 279.141 236.047 278.797 235.859C278.458 235.677 278.13 235.474 277.812 235.245C277.5 235.021 277.198 234.776 276.917 234.516C276.63 234.255 276.365 233.974 276.115 233.677C275.859 233.385 275.63 233.073 275.417 232.75C275.208 232.427 275.016 232.089 274.844 231.74C274.677 231.396 274.526 231.036 274.401 230.672C274.276 230.307 274.172 229.932 274.094 229.552C274.016 229.172 273.958 228.792 273.927 228.406C273.896 228.021 273.885 227.635 273.901 227.245C273.917 226.859 273.958 226.474 274.021 226.094C274.089 225.714 274.172 225.333 274.281 224.964C274.396 224.594 274.526 224.229 274.682 223.875L274.75 223.729L318.292 132.698L206.333 256.047Z" fill="#74B8FF"/>
</g>
<mask id="mask7_1_118" style="mask-type:luminance" maskUnits="userSpaceOnUse" x="254" y="310" width="90" height="70">
<path d="M254.276 310.943H343.932V379.214H254.276V310.943Z" fill="white"/>
</mask>
<g mask="url(#mask7_1_118)">
<path d="M210.776 379.167C208.651 379.156 206.755 378.495 205.078 377.193C204.63 376.865 204.219 376.495 203.839 376.094C203.464 375.688 203.12 375.25 202.823 374.786C202.521 374.318 202.266 373.828 202.052 373.318C201.844 372.802 201.677 372.276 201.563 371.734C201.443 371.193 201.375 370.646 201.359 370.089C201.344 369.536 201.375 368.984 201.458 368.438C201.542 367.891 201.672 367.354 201.849 366.828C202.031 366.302 202.255 365.797 202.526 365.313L202.568 365.234L258.495 266.208H205.172C204.255 266.208 203.354 266.073 202.474 265.807C201.594 265.542 200.776 265.151 200.01 264.646C199.245 264.135 198.568 263.526 197.984 262.818C197.396 262.115 196.927 261.333 196.568 260.49C196.208 259.646 195.984 258.766 195.885 257.849C195.786 256.938 195.823 256.031 195.99 255.125C196.161 254.224 196.458 253.365 196.88 252.547C197.302 251.734 197.833 250.995 198.474 250.339L312.083 125.13L312.245 124.958C312.625 124.578 313.042 124.229 313.484 123.922C313.927 123.609 314.391 123.339 314.88 123.109C315.37 122.88 315.88 122.693 316.401 122.552C316.922 122.411 317.453 122.313 317.99 122.266C318.531 122.214 319.068 122.214 319.609 122.255C320.146 122.297 320.677 122.391 321.203 122.526C321.724 122.661 322.234 122.839 322.724 123.063C323.219 123.286 323.688 123.552 324.135 123.859C324.583 124.161 325 124.505 325.385 124.88C325.771 125.26 326.125 125.667 326.443 126.104C326.755 126.547 327.031 127.005 327.271 127.495C327.505 127.979 327.698 128.484 327.849 129.005C327.995 129.526 328.099 130.052 328.156 130.589C328.214 131.13 328.224 131.667 328.188 132.208C328.151 132.745 328.068 133.281 327.943 133.807C327.813 134.328 327.641 134.839 327.422 135.339L327.354 135.479L283.182 227.865H330.104C331.396 227.87 332.661 228.057 333.896 228.427C335.135 228.802 336.292 229.344 337.37 230.063C338.448 230.776 339.401 231.63 340.224 232.625C341.052 233.62 341.719 234.708 342.224 235.901C342.724 237.094 343.047 238.328 343.188 239.615C343.328 240.901 343.281 242.177 343.042 243.448C342.807 244.719 342.396 245.932 341.802 247.078C341.208 248.229 340.464 249.266 339.568 250.198L217.344 376.359L217.203 376.5C216.344 377.344 215.359 377.995 214.245 378.458C213.135 378.917 211.979 379.151 210.776 379.167ZM205.813 256.563H258.979C259.385 256.563 259.786 256.589 260.188 256.641C260.583 256.693 260.979 256.771 261.37 256.87C261.76 256.974 262.141 257.104 262.516 257.255C262.885 257.406 263.25 257.583 263.599 257.781C263.948 257.984 264.286 258.203 264.609 258.448C264.932 258.688 265.234 258.953 265.521 259.234C265.813 259.516 266.078 259.813 266.328 260.13C266.578 260.448 266.807 260.781 267.01 261.125C267.219 261.474 267.401 261.828 267.563 262.198C267.724 262.568 267.859 262.948 267.969 263.333C268.078 263.724 268.167 264.115 268.229 264.516C268.286 264.911 268.323 265.313 268.328 265.719C268.339 266.12 268.323 266.521 268.276 266.922C268.234 267.323 268.167 267.719 268.073 268.109C267.979 268.505 267.859 268.885 267.714 269.266C267.568 269.641 267.401 270.005 267.208 270.359L267.167 270.438L212.089 367.964L332.63 243.5C333.125 242.99 333.438 242.385 333.568 241.688C333.703 240.99 333.625 240.313 333.349 239.656C333.073 239.005 332.641 238.479 332.047 238.089C331.453 237.698 330.802 237.5 330.094 237.5H282.729C282.344 237.5 281.958 237.479 281.573 237.432C281.188 237.38 280.807 237.313 280.432 237.214C280.057 237.12 279.688 237.005 279.328 236.865C278.969 236.724 278.615 236.557 278.276 236.375C277.938 236.193 277.609 235.984 277.292 235.76C276.979 235.536 276.677 235.292 276.391 235.031C276.109 234.766 275.839 234.49 275.589 234.193C275.339 233.896 275.109 233.589 274.896 233.266C274.688 232.938 274.495 232.604 274.323 232.255C274.156 231.906 274.005 231.552 273.88 231.182C273.755 230.818 273.651 230.448 273.573 230.068C273.495 229.688 273.438 229.307 273.406 228.922C273.375 228.531 273.365 228.146 273.38 227.76C273.396 227.375 273.438 226.99 273.5 226.609C273.563 226.224 273.651 225.849 273.76 225.479C273.87 225.104 274.005 224.745 274.161 224.391L274.229 224.245L317.771 133.208L205.813 256.563Z" fill="#74B8FF"/>
</g>
<mask id="mask8_1_118" style="mask-type:luminance" maskUnits="userSpaceOnUse" x="243" y="323" width="101" height="56">
<path d="M243.385 323.13H344V378.667H243.385V323.13Z" fill="white"/>
</mask>
<g mask="url(#mask8_1_118)">
<path d="M211.297 378.651C209.177 378.641 207.276 377.984 205.599 376.682C205.151 376.349 204.74 375.984 204.365 375.578C203.984 375.172 203.646 374.74 203.344 374.271C203.042 373.807 202.786 373.318 202.573 372.802C202.365 372.292 202.198 371.766 202.083 371.219C201.969 370.677 201.901 370.13 201.88 369.578C201.865 369.021 201.896 368.469 201.979 367.922C202.063 367.375 202.193 366.839 202.375 366.313C202.552 365.786 202.776 365.286 203.047 364.802L203.094 364.724L259.016 265.693H205.693C204.776 265.693 203.875 265.557 202.995 265.292C202.12 265.026 201.297 264.641 200.531 264.13C199.766 263.62 199.089 263.016 198.505 262.307C197.917 261.599 197.448 260.823 197.089 259.974C196.734 259.13 196.505 258.25 196.406 257.339C196.307 256.422 196.344 255.516 196.516 254.615C196.682 253.708 196.979 252.849 197.401 252.036C197.823 251.219 198.354 250.484 198.995 249.823L312.604 124.62L312.766 124.443C313.151 124.063 313.563 123.719 314.005 123.406C314.448 123.094 314.917 122.823 315.406 122.594C315.896 122.365 316.401 122.182 316.922 122.036C317.443 121.896 317.974 121.802 318.51 121.75C319.052 121.703 319.589 121.698 320.13 121.74C320.667 121.786 321.198 121.875 321.724 122.01C322.25 122.146 322.755 122.328 323.25 122.552C323.74 122.776 324.208 123.036 324.656 123.344C325.104 123.651 325.521 123.99 325.906 124.37C326.297 124.745 326.646 125.156 326.964 125.594C327.281 126.031 327.557 126.495 327.792 126.979C328.026 127.469 328.219 127.969 328.37 128.49C328.521 129.01 328.62 129.542 328.677 130.078C328.734 130.615 328.745 131.156 328.714 131.693C328.677 132.234 328.594 132.766 328.464 133.292C328.333 133.818 328.162 134.328 327.943 134.823L327.88 134.969L283.703 227.354H330.625C331.917 227.354 333.182 227.542 334.422 227.917C335.656 228.286 336.818 228.833 337.896 229.547C338.969 230.26 339.922 231.115 340.75 232.109C341.573 233.104 342.24 234.198 342.745 235.385C343.25 236.578 343.573 237.818 343.708 239.099C343.849 240.385 343.802 241.661 343.568 242.932C343.328 244.208 342.917 245.417 342.323 246.563C341.729 247.714 340.984 248.755 340.089 249.682L217.865 375.849L217.724 375.99C216.865 376.828 215.88 377.484 214.771 377.943C213.656 378.401 212.5 378.641 211.297 378.651ZM206.333 256.047H259.505C259.906 256.047 260.307 256.073 260.708 256.125C261.109 256.177 261.5 256.255 261.891 256.359C262.281 256.464 262.661 256.589 263.036 256.74C263.411 256.896 263.771 257.068 264.12 257.271C264.474 257.469 264.807 257.688 265.13 257.932C265.453 258.172 265.755 258.438 266.047 258.719C266.333 259 266.604 259.302 266.849 259.615C267.099 259.932 267.328 260.266 267.536 260.609C267.74 260.958 267.922 261.318 268.083 261.688C268.245 262.057 268.38 262.432 268.49 262.823C268.604 263.208 268.688 263.604 268.75 264C268.807 264.401 268.844 264.802 268.854 265.203C268.859 265.604 268.844 266.01 268.802 266.411C268.755 266.807 268.688 267.208 268.594 267.599C268.5 267.99 268.38 268.375 268.234 268.75C268.094 269.125 267.922 269.495 267.734 269.849L267.688 269.927L212.609 367.453L333.156 242.984C333.651 242.474 333.964 241.87 334.094 241.172C334.224 240.474 334.151 239.797 333.875 239.146C333.594 238.49 333.162 237.969 332.568 237.573C331.974 237.182 331.323 236.99 330.615 236.99H283.25C282.865 236.99 282.479 236.964 282.094 236.917C281.708 236.87 281.328 236.797 280.953 236.703C280.578 236.609 280.214 236.49 279.849 236.349C279.49 236.208 279.141 236.047 278.797 235.859C278.458 235.677 278.13 235.474 277.818 235.245C277.5 235.021 277.198 234.776 276.917 234.516C276.63 234.255 276.365 233.974 276.115 233.677C275.859 233.385 275.63 233.073 275.417 232.75C275.208 232.427 275.016 232.089 274.844 231.74C274.677 231.396 274.526 231.036 274.401 230.672C274.276 230.307 274.172 229.932 274.094 229.552C274.016 229.172 273.958 228.792 273.927 228.406C273.896 228.021 273.885 227.635 273.901 227.245C273.917 226.859 273.958 226.474 274.021 226.094C274.089 225.714 274.172 225.333 274.281 224.964C274.396 224.594 274.526 224.229 274.682 223.875L274.75 223.729L318.292 132.698L206.333 256.047Z" fill="#74B8FF"/>
</g>
<mask id="mask9_1_118" style="mask-type:luminance" maskUnits="userSpaceOnUse" x="279" y="121" width="45" height="258">
<path d="M279.385 121.333H324V378.667H279.385V121.333Z" fill="white"/>
</mask>
<g mask="url(#mask9_1_118)">
<path d="M191.396 378.651C189.271 378.641 187.375 377.984 185.698 376.682C185.25 376.349 184.839 375.984 184.458 375.578C184.078 375.172 183.74 374.74 183.443 374.271C183.141 373.807 182.885 373.318 182.672 372.802C182.458 372.292 182.297 371.766 182.182 371.219C182.062 370.677 181.995 370.13 181.979 369.578C181.964 369.021 181.995 368.469 182.078 367.922C182.161 367.375 182.292 366.839 182.469 366.313C182.651 365.786 182.875 365.286 183.146 364.802L183.187 364.724L239.115 265.693H185.792C184.875 265.693 183.974 265.557 183.094 265.292C182.214 265.026 181.396 264.641 180.63 264.13C179.865 263.62 179.187 263.016 178.604 262.307C178.016 261.599 177.547 260.823 177.187 259.974C176.828 259.13 176.604 258.25 176.505 257.339C176.406 256.422 176.443 255.516 176.609 254.615C176.781 253.708 177.078 252.849 177.5 252.036C177.922 251.219 178.453 250.484 179.094 249.823L292.703 124.62L292.865 124.443C293.245 124.063 293.661 123.719 294.104 123.406C294.547 123.094 295.01 122.823 295.5 122.594C295.99 122.365 296.495 122.182 297.021 122.036C297.542 121.896 298.073 121.802 298.609 121.75C299.151 121.703 299.687 121.698 300.229 121.74C300.766 121.786 301.297 121.875 301.823 122.01C302.344 122.146 302.854 122.328 303.344 122.552C303.839 122.776 304.307 123.036 304.755 123.344C305.198 123.651 305.62 123.99 306.005 124.37C306.391 124.745 306.745 125.156 307.062 125.594C307.375 126.031 307.651 126.495 307.891 126.979C308.125 127.469 308.318 127.969 308.469 128.49C308.615 129.01 308.719 129.542 308.776 130.078C308.833 130.615 308.844 131.156 308.807 131.693C308.771 132.234 308.687 132.766 308.562 133.292C308.432 133.818 308.26 134.328 308.042 134.823L307.974 134.969L263.802 227.354H310.724C312.016 227.354 313.281 227.542 314.516 227.917C315.755 228.286 316.911 228.833 317.99 229.547C319.068 230.26 320.021 231.115 320.844 232.109C321.672 233.104 322.339 234.198 322.844 235.385C323.344 236.578 323.667 237.818 323.807 239.099C323.948 240.385 323.901 241.661 323.661 242.932C323.427 244.208 323.016 245.417 322.422 246.563C321.828 247.714 321.083 248.755 320.182 249.682L197.958 375.849L197.823 375.99C196.964 376.828 195.979 377.479 194.865 377.943C193.755 378.401 192.599 378.641 191.396 378.651ZM186.432 256.047H239.599C240.005 256.047 240.406 256.073 240.807 256.125C241.203 256.177 241.599 256.255 241.99 256.359C242.38 256.464 242.76 256.589 243.135 256.74C243.505 256.896 243.87 257.068 244.219 257.271C244.568 257.469 244.906 257.688 245.229 257.932C245.547 258.172 245.854 258.438 246.141 258.719C246.432 259 246.698 259.302 246.948 259.615C247.198 259.932 247.427 260.266 247.63 260.609C247.839 260.958 248.021 261.318 248.182 261.688C248.344 262.057 248.479 262.432 248.589 262.823C248.698 263.208 248.786 263.604 248.849 264C248.906 264.401 248.943 264.802 248.948 265.203C248.958 265.604 248.943 266.01 248.896 266.411C248.854 266.807 248.786 267.208 248.693 267.599C248.599 267.99 248.479 268.375 248.333 268.75C248.187 269.125 248.021 269.495 247.828 269.849L247.786 269.927L192.708 367.453L313.25 242.984C313.745 242.474 314.057 241.87 314.187 241.172C314.318 240.474 314.245 239.797 313.969 239.146C313.693 238.49 313.26 237.969 312.667 237.573C312.073 237.182 311.422 236.99 310.714 236.99H263.349C262.964 236.99 262.578 236.964 262.193 236.917C261.807 236.87 261.427 236.797 261.052 236.703C260.677 236.609 260.307 236.49 259.948 236.349C259.589 236.208 259.234 236.047 258.896 235.859C258.557 235.677 258.229 235.474 257.911 235.245C257.599 235.021 257.297 234.776 257.01 234.516C256.729 234.255 256.458 233.974 256.208 233.677C255.958 233.385 255.729 233.073 255.516 232.75C255.302 232.427 255.115 232.089 254.943 231.74C254.771 231.396 254.625 231.036 254.5 230.672C254.375 230.307 254.271 229.932 254.193 229.552C254.115 229.172 254.057 228.792 254.026 228.406C253.995 228.021 253.984 227.635 254 227.245C254.016 226.859 254.057 226.474 254.12 226.094C254.182 225.714 254.271 225.333 254.38 224.964C254.49 224.594 254.625 224.229 254.781 223.875L254.849 223.729L298.391 132.698L186.432 256.047Z" fill="#594DE9"/>
</g>
<mask id="mask10_1_118" style="mask-type:luminance" maskUnits="userSpaceOnUse" x="176" y="346" width="148" height="33">
<path d="M176 346.849H324V378.359H176V346.849Z" fill="white"/>
</mask>
<g mask="url(#mask10_1_118)">
<path d="M191.323 378.651C189.198 378.641 187.297 377.984 185.62 376.682C185.177 376.349 184.766 375.984 184.385 375.578C184.005 375.172 183.667 374.74 183.365 374.271C183.068 373.807 182.813 373.318 182.599 372.802C182.385 372.292 182.224 371.766 182.104 371.219C181.99 370.677 181.922 370.13 181.906 369.578C181.891 369.021 181.922 368.469 182.005 367.922C182.083 367.375 182.219 366.839 182.396 366.313C182.573 365.786 182.802 365.286 183.073 364.802L183.115 364.724L239.042 265.693H185.719C184.797 265.693 183.901 265.557 183.021 265.292C182.141 265.026 181.318 264.641 180.552 264.13C179.792 263.62 179.115 263.016 178.526 262.307C177.943 261.599 177.469 260.823 177.115 259.974C176.755 259.13 176.526 258.25 176.432 257.339C176.333 256.422 176.37 255.516 176.536 254.615C176.708 253.708 177 252.849 177.427 252.036C177.849 251.219 178.38 250.484 179.016 249.823L292.63 124.62L292.792 124.443C293.172 124.063 293.583 123.719 294.026 123.406C294.469 123.094 294.938 122.823 295.427 122.594C295.917 122.365 296.422 122.182 296.943 122.036C297.469 121.896 298 121.802 298.536 121.75C299.073 121.703 299.615 121.698 300.151 121.74C300.693 121.786 301.224 121.875 301.745 122.01C302.271 122.146 302.781 122.328 303.271 122.552C303.766 122.776 304.234 123.036 304.677 123.344C305.125 123.651 305.542 123.99 305.932 124.37C306.318 124.745 306.672 125.156 306.984 125.594C307.302 126.031 307.578 126.495 307.818 126.979C308.052 127.469 308.245 127.969 308.396 128.49C308.542 129.01 308.646 129.542 308.703 130.078C308.76 130.615 308.771 131.156 308.734 131.693C308.698 132.234 308.615 132.766 308.49 133.292C308.359 133.818 308.188 134.328 307.969 134.823L307.901 134.969L263.729 227.354H310.646C311.943 227.354 313.208 227.542 314.443 227.917C315.682 228.286 316.839 228.833 317.917 229.547C318.995 230.26 319.948 231.115 320.771 232.109C321.599 233.104 322.26 234.198 322.766 235.385C323.271 236.578 323.594 237.818 323.734 239.099C323.875 240.385 323.828 241.661 323.589 242.932C323.354 244.208 322.938 245.417 322.349 246.563C321.755 247.714 321.01 248.755 320.109 249.682L197.885 375.849L197.745 375.99C196.891 376.828 195.906 377.484 194.792 377.943C193.682 378.401 192.526 378.641 191.323 378.651ZM186.359 256.047H239.526C239.932 256.047 240.333 256.073 240.729 256.125C241.13 256.177 241.526 256.255 241.917 256.359C242.307 256.464 242.688 256.589 243.057 256.74C243.432 256.896 243.797 257.068 244.146 257.271C244.495 257.469 244.833 257.688 245.151 257.932C245.474 258.177 245.781 258.438 246.068 258.719C246.354 259 246.625 259.302 246.875 259.615C247.125 259.932 247.349 260.266 247.557 260.609C247.766 260.958 247.948 261.318 248.109 261.688C248.266 262.057 248.401 262.432 248.516 262.823C248.625 263.208 248.714 263.604 248.771 264C248.833 264.401 248.865 264.802 248.875 265.203C248.885 265.604 248.865 266.01 248.823 266.411C248.781 266.807 248.714 267.208 248.615 267.599C248.521 267.99 248.401 268.375 248.26 268.75C248.115 269.125 247.948 269.495 247.755 269.849L247.708 269.927L192.635 367.453L313.177 242.984C313.672 242.474 313.984 241.87 314.115 241.172C314.245 240.474 314.172 239.797 313.896 239.146C313.62 238.49 313.182 237.969 312.594 237.573C312 237.182 311.349 236.99 310.635 236.99H263.276C262.885 236.99 262.5 236.964 262.12 236.917C261.734 236.87 261.354 236.797 260.979 236.703C260.604 236.609 260.234 236.49 259.875 236.349C259.516 236.208 259.161 236.047 258.823 235.859C258.479 235.677 258.151 235.474 257.839 235.245C257.521 235.021 257.224 234.776 256.938 234.516C256.651 234.255 256.385 233.974 256.135 233.677C255.885 233.385 255.656 233.073 255.443 232.75C255.229 232.427 255.042 232.089 254.87 231.745C254.698 231.396 254.552 231.036 254.427 230.672C254.302 230.307 254.198 229.932 254.12 229.552C254.036 229.172 253.984 228.792 253.948 228.406C253.917 228.021 253.911 227.635 253.927 227.245C253.943 226.859 253.984 226.474 254.047 226.094C254.109 225.714 254.198 225.333 254.307 224.964C254.417 224.594 254.552 224.229 254.703 223.875L254.771 223.729L298.318 132.698L186.359 256.047Z" fill="#594DE9"/>
</g>
<mask id="mask11_1_118" style="mask-type:luminance" maskUnits="userSpaceOnUse" x="249" y="190" width="75" height="51">
<path d="M249.292 190.156H324V240.047H249.292V190.156Z" fill="white"/>
</mask>
<g mask="url(#mask11_1_118)">
<path d="M191.396 378.651C189.271 378.641 187.375 377.984 185.698 376.682C185.25 376.349 184.839 375.984 184.458 375.578C184.078 375.172 183.74 374.74 183.443 374.271C183.141 373.807 182.885 373.318 182.672 372.802C182.458 372.292 182.297 371.766 182.182 371.219C182.063 370.677 181.995 370.13 181.979 369.578C181.964 369.021 181.995 368.469 182.078 367.922C182.161 367.375 182.292 366.839 182.469 366.313C182.651 365.786 182.875 365.286 183.146 364.802L183.188 364.724L239.115 265.693H185.792C184.875 265.693 183.974 265.557 183.094 265.292C182.214 265.026 181.396 264.641 180.63 264.13C179.865 263.62 179.188 263.016 178.604 262.307C178.016 261.599 177.547 260.823 177.188 259.974C176.828 259.13 176.604 258.25 176.505 257.339C176.406 256.422 176.443 255.516 176.609 254.615C176.781 253.708 177.078 252.849 177.5 252.036C177.922 251.219 178.453 250.484 179.094 249.823L292.703 124.62L292.865 124.443C293.245 124.063 293.661 123.719 294.104 123.406C294.547 123.094 295.01 122.823 295.5 122.594C295.99 122.365 296.495 122.182 297.021 122.036C297.542 121.896 298.073 121.802 298.609 121.75C299.151 121.703 299.688 121.698 300.229 121.74C300.766 121.786 301.297 121.875 301.823 122.01C302.344 122.146 302.854 122.328 303.344 122.552C303.839 122.776 304.307 123.036 304.755 123.344C305.198 123.651 305.62 123.99 306.005 124.37C306.391 124.745 306.745 125.156 307.063 125.594C307.375 126.031 307.651 126.495 307.891 126.979C308.125 127.469 308.318 127.969 308.469 128.49C308.615 129.01 308.719 129.542 308.776 130.078C308.833 130.615 308.844 131.156 308.807 131.693C308.771 132.234 308.688 132.766 308.563 133.292C308.432 133.818 308.26 134.328 308.042 134.823L307.974 134.969L263.802 227.354H310.724C312.016 227.354 313.281 227.542 314.516 227.917C315.755 228.286 316.911 228.833 317.99 229.547C319.068 230.26 320.021 231.115 320.844 232.109C321.672 233.104 322.339 234.198 322.844 235.385C323.344 236.578 323.667 237.818 323.807 239.099C323.948 240.385 323.901 241.661 323.661 242.932C323.427 244.208 323.016 245.417 322.422 246.563C321.828 247.714 321.083 248.755 320.182 249.682L197.958 375.849L197.823 375.99C196.964 376.828 195.979 377.484 194.865 377.943C193.755 378.401 192.599 378.641 191.396 378.651ZM186.432 256.047H239.599C240.005 256.047 240.406 256.073 240.807 256.125C241.203 256.177 241.599 256.255 241.99 256.359C242.38 256.464 242.76 256.589 243.135 256.74C243.505 256.896 243.87 257.068 244.219 257.271C244.568 257.469 244.906 257.688 245.229 257.932C245.547 258.172 245.854 258.438 246.141 258.719C246.432 259 246.698 259.302 246.948 259.615C247.198 259.932 247.427 260.266 247.63 260.609C247.839 260.958 248.021 261.318 248.182 261.688C248.344 262.057 248.479 262.432 248.589 262.823C248.698 263.208 248.786 263.604 248.849 264C248.906 264.401 248.943 264.802 248.948 265.203C248.958 265.604 248.943 266.01 248.896 266.411C248.854 266.807 248.786 267.208 248.693 267.599C248.599 267.99 248.479 268.375 248.333 268.75C248.188 269.125 248.021 269.495 247.828 269.849L247.786 269.927L192.708 367.453L313.25 242.984C313.745 242.474 314.057 241.87 314.188 241.172C314.318 240.474 314.245 239.797 313.969 239.146C313.693 238.49 313.26 237.969 312.667 237.573C312.073 237.182 311.422 236.99 310.714 236.99H263.349C262.964 236.99 262.578 236.964 262.193 236.917C261.807 236.87 261.427 236.797 261.052 236.703C260.677 236.609 260.307 236.49 259.948 236.349C259.589 236.208 259.234 236.047 258.896 235.859C258.557 235.677 258.229 235.474 257.911 235.245C257.599 235.021 257.297 234.776 257.01 234.516C256.729 234.255 256.458 233.974 256.208 233.677C255.958 233.385 255.729 233.073 255.516 232.75C255.302 232.427 255.115 232.089 254.943 231.74C254.771 231.396 254.625 231.036 254.5 230.672C254.375 230.307 254.271 229.932 254.193 229.552C254.115 229.172 254.057 228.792 254.026 228.406C253.995 228.021 253.984 227.635 254 227.245C254.016 226.859 254.057 226.474 254.12 226.094C254.182 225.714 254.271 225.333 254.38 224.964C254.49 224.594 254.625 224.229 254.781 223.875L254.849 223.729L298.391 132.698L186.432 256.047Z" fill="#594DE9"/>
</g>
<mask id="mask12_1_118" style="mask-type:luminance" maskUnits="userSpaceOnUse" x="270" y="167" width="54" height="73">
<path d="M270.917 167.286H324V239.932H270.917V167.286Z" fill="white"/>
</mask>
<g mask="url(#mask12_1_118)">
<path d="M191.396 378.651C189.271 378.641 187.375 377.984 185.698 376.682C185.25 376.349 184.839 375.984 184.458 375.578C184.078 375.172 183.74 374.74 183.443 374.271C183.141 373.807 182.885 373.318 182.672 372.802C182.458 372.292 182.297 371.766 182.182 371.219C182.062 370.677 181.995 370.13 181.979 369.578C181.964 369.021 181.995 368.469 182.078 367.922C182.161 367.375 182.292 366.839 182.469 366.313C182.651 365.786 182.875 365.286 183.146 364.802L183.187 364.724L239.115 265.693H185.792C184.875 265.693 183.974 265.557 183.094 265.292C182.214 265.026 181.396 264.641 180.63 264.13C179.865 263.62 179.187 263.016 178.604 262.307C178.016 261.599 177.547 260.823 177.187 259.974C176.828 259.13 176.604 258.25 176.505 257.339C176.406 256.422 176.443 255.516 176.609 254.615C176.781 253.708 177.078 252.849 177.5 252.036C177.922 251.219 178.453 250.484 179.094 249.823L292.703 124.62L292.865 124.443C293.245 124.063 293.661 123.719 294.104 123.406C294.547 123.094 295.01 122.823 295.5 122.594C295.99 122.365 296.495 122.182 297.021 122.036C297.542 121.896 298.073 121.802 298.609 121.75C299.151 121.703 299.687 121.698 300.229 121.74C300.766 121.786 301.297 121.875 301.823 122.01C302.344 122.146 302.854 122.328 303.344 122.552C303.839 122.776 304.307 123.036 304.755 123.344C305.198 123.651 305.62 123.99 306.005 124.37C306.391 124.745 306.745 125.156 307.062 125.594C307.375 126.031 307.651 126.495 307.891 126.979C308.125 127.469 308.318 127.969 308.469 128.49C308.615 129.01 308.719 129.542 308.776 130.078C308.833 130.615 308.844 131.156 308.807 131.693C308.771 132.234 308.687 132.766 308.562 133.292C308.432 133.818 308.26 134.328 308.042 134.823L307.974 134.969L263.802 227.354H310.724C312.016 227.354 313.281 227.542 314.516 227.917C315.755 228.286 316.911 228.833 317.99 229.547C319.068 230.26 320.021 231.115 320.844 232.109C321.672 233.104 322.339 234.198 322.844 235.385C323.344 236.578 323.667 237.818 323.807 239.099C323.948 240.385 323.901 241.661 323.661 242.932C323.427 244.208 323.016 245.417 322.422 246.563C321.828 247.714 321.083 248.755 320.182 249.682L197.958 375.849L197.823 375.99C196.964 376.828 195.979 377.484 194.865 377.943C193.755 378.401 192.599 378.641 191.396 378.651ZM186.432 256.047H239.599C240.005 256.047 240.406 256.073 240.807 256.125C241.203 256.177 241.599 256.255 241.99 256.359C242.38 256.464 242.76 256.589 243.135 256.74C243.505 256.896 243.87 257.068 244.219 257.271C244.568 257.469 244.906 257.688 245.229 257.932C245.547 258.172 245.854 258.438 246.141 258.719C246.432 259 246.698 259.302 246.948 259.615C247.198 259.932 247.427 260.266 247.63 260.609C247.839 260.958 248.021 261.318 248.182 261.688C248.344 262.057 248.479 262.432 248.589 262.823C248.698 263.208 248.786 263.604 248.849 264C248.906 264.401 248.943 264.802 248.948 265.203C248.958 265.604 248.943 266.01 248.896 266.411C248.854 266.807 248.786 267.208 248.693 267.599C248.599 267.99 248.479 268.375 248.333 268.75C248.187 269.125 248.021 269.495 247.828 269.849L247.786 269.927L192.708 367.453L313.25 242.984C313.745 242.474 314.057 241.87 314.187 241.172C314.318 240.474 314.245 239.797 313.969 239.146C313.693 238.49 313.26 237.969 312.667 237.573C312.073 237.182 311.422 236.99 310.714 236.99H263.349C262.964 236.99 262.578 236.964 262.193 236.917C261.807 236.87 261.427 236.797 261.052 236.703C260.677 236.609 260.307 236.49 259.948 236.349C259.589 236.208 259.234 236.047 258.896 235.859C258.557 235.677 258.229 235.474 257.911 235.245C257.599 235.021 257.297 234.776 257.01 234.516C256.729 234.255 256.458 233.974 256.208 233.677C255.958 233.385 255.729 233.073 255.516 232.75C255.302 232.427 255.115 232.089 254.943 231.74C254.771 231.396 254.625 231.036 254.5 230.672C254.375 230.307 254.271 229.932 254.193 229.552C254.115 229.172 254.057 228.792 254.026 228.406C253.995 228.021 253.984 227.635 254 227.245C254.016 226.859 254.057 226.474 254.12 226.094C254.182 225.714 254.271 225.333 254.38 224.964C254.49 224.594 254.625 224.229 254.781 223.875L254.849 223.729L298.391 132.698L186.432 256.047Z" fill="#594DE9"/>
</g>
<mask id="mask13_1_118" style="mask-type:luminance" maskUnits="userSpaceOnUse" x="210" y="339" width="94" height="27">
<path d="M210.24 339.667H303.891V365.922H210.24V339.667Z" fill="white"/>
</mask>
<g mask="url(#mask13_1_118)">
<path d="M192.547 377.396C190.427 377.385 188.526 376.729 186.849 375.427C186.401 375.094 185.99 374.729 185.615 374.323C185.234 373.917 184.896 373.484 184.594 373.016C184.292 372.552 184.036 372.062 183.823 371.547C183.615 371.036 183.448 370.51 183.333 369.969C183.219 369.427 183.151 368.875 183.13 368.323C183.115 367.771 183.146 367.219 183.229 366.667C183.312 366.12 183.443 365.583 183.625 365.057C183.802 364.536 184.026 364.031 184.297 363.547L184.344 363.469L240.266 264.437H186.943C186.026 264.437 185.125 264.302 184.245 264.036C183.37 263.771 182.547 263.385 181.781 262.875C181.016 262.37 180.339 261.76 179.755 261.052C179.167 260.344 178.698 259.568 178.339 258.724C177.984 257.875 177.755 256.995 177.656 256.083C177.557 255.172 177.594 254.26 177.766 253.359C177.932 252.458 178.229 251.599 178.651 250.781C179.073 249.964 179.604 249.229 180.245 248.568L293.854 123.365L294.016 123.193C294.401 122.807 294.812 122.464 295.255 122.151C295.698 121.844 296.167 121.573 296.656 121.344C297.146 121.115 297.651 120.927 298.172 120.786C298.693 120.641 299.224 120.547 299.76 120.495C300.302 120.448 300.839 120.443 301.38 120.49C301.917 120.531 302.448 120.62 302.974 120.755C303.5 120.891 304.005 121.073 304.5 121.297C304.99 121.521 305.458 121.786 305.906 122.089C306.354 122.396 306.771 122.734 307.156 123.115C307.547 123.49 307.896 123.901 308.214 124.339C308.531 124.776 308.807 125.24 309.042 125.724C309.276 126.214 309.469 126.719 309.62 127.234C309.771 127.755 309.87 128.286 309.927 128.823C309.984 129.359 309.995 129.901 309.964 130.437C309.927 130.979 309.844 131.51 309.714 132.036C309.583 132.562 309.411 133.073 309.198 133.568L309.13 133.714L264.953 226.099H311.875C313.167 226.099 314.432 226.286 315.672 226.661C316.906 227.036 318.068 227.578 319.146 228.292C320.219 229.005 321.172 229.859 322 230.854C322.823 231.849 323.49 232.943 323.995 234.135C324.5 235.323 324.823 236.562 324.958 237.849C325.099 239.13 325.052 240.411 324.818 241.682C324.578 242.953 324.167 244.161 323.573 245.312C322.979 246.458 322.234 247.5 321.339 248.427L199.115 374.594L198.974 374.734C198.115 375.578 197.13 376.229 196.021 376.687C194.906 377.151 193.75 377.385 192.547 377.396ZM187.583 254.792H240.755C241.156 254.792 241.557 254.818 241.958 254.87C242.359 254.922 242.75 255 243.141 255.104C243.531 255.208 243.911 255.333 244.286 255.49C244.661 255.641 245.021 255.818 245.37 256.016C245.724 256.214 246.057 256.437 246.38 256.677C246.703 256.922 247.005 257.182 247.297 257.464C247.583 257.745 247.854 258.047 248.099 258.365C248.349 258.682 248.578 259.01 248.786 259.359C248.99 259.703 249.172 260.062 249.333 260.432C249.495 260.802 249.63 261.182 249.74 261.568C249.854 261.953 249.937 262.349 250 262.745C250.057 263.146 250.094 263.547 250.104 263.948C250.109 264.354 250.094 264.755 250.052 265.156C250.005 265.557 249.937 265.953 249.844 266.344C249.75 266.734 249.63 267.12 249.484 267.495C249.344 267.875 249.172 268.24 248.984 268.594L248.937 268.672L193.859 366.198L314.406 241.729C314.901 241.219 315.214 240.615 315.344 239.917C315.474 239.219 315.401 238.542 315.125 237.891C314.844 237.234 314.411 236.714 313.818 236.323C313.224 235.927 312.573 235.734 311.865 235.734H264.5C264.115 235.734 263.729 235.708 263.344 235.661C262.958 235.615 262.578 235.542 262.203 235.448C261.828 235.354 261.464 235.234 261.099 235.094C260.74 234.953 260.391 234.792 260.047 234.609C259.708 234.422 259.38 234.219 259.068 233.995C258.75 233.771 258.448 233.526 258.167 233.26C257.88 233 257.615 232.719 257.365 232.427C257.109 232.13 256.88 231.823 256.667 231.495C256.458 231.172 256.266 230.839 256.094 230.49C255.927 230.141 255.776 229.781 255.651 229.417C255.526 229.052 255.422 228.677 255.344 228.297C255.266 227.922 255.208 227.536 255.177 227.151C255.146 226.766 255.135 226.38 255.151 225.995C255.167 225.604 255.208 225.224 255.271 224.839C255.339 224.458 255.422 224.083 255.531 223.708C255.646 223.339 255.776 222.974 255.932 222.62L256 222.474L299.542 131.443L187.583 254.792Z" fill="#594DE9"/>
</g>
<mask id="mask14_1_118" style="mask-type:luminance" maskUnits="userSpaceOnUse" x="246" y="277" width="78" height="102">
<path d="M246.354 277.396H324V378.667H246.354V277.396Z" fill="white"/>
</mask>
<g mask="url(#mask14_1_118)">
<path d="M191.396 378.651C189.271 378.641 187.375 377.984 185.698 376.682C185.25 376.349 184.839 375.984 184.458 375.578C184.078 375.172 183.74 374.74 183.443 374.271C183.141 373.807 182.885 373.318 182.672 372.802C182.458 372.292 182.297 371.766 182.182 371.219C182.063 370.677 181.995 370.13 181.979 369.578C181.964 369.021 181.995 368.469 182.078 367.922C182.161 367.375 182.292 366.839 182.469 366.313C182.651 365.786 182.875 365.286 183.146 364.802L183.188 364.724L239.115 265.693H185.792C184.875 265.693 183.974 265.557 183.094 265.292C182.214 265.026 181.396 264.641 180.63 264.13C179.865 263.62 179.188 263.016 178.604 262.307C178.016 261.599 177.547 260.823 177.188 259.974C176.828 259.13 176.604 258.25 176.505 257.339C176.406 256.422 176.443 255.516 176.609 254.615C176.781 253.708 177.078 252.849 177.5 252.036C177.922 251.219 178.453 250.484 179.094 249.823L292.703 124.62L292.865 124.443C293.245 124.063 293.661 123.719 294.104 123.406C294.547 123.094 295.01 122.823 295.5 122.594C295.99 122.365 296.495 122.182 297.021 122.036C297.542 121.896 298.073 121.802 298.609 121.75C299.151 121.703 299.688 121.698 300.229 121.74C300.766 121.786 301.297 121.875 301.823 122.01C302.344 122.146 302.854 122.328 303.344 122.552C303.839 122.776 304.307 123.036 304.755 123.344C305.198 123.651 305.62 123.99 306.005 124.37C306.391 124.745 306.745 125.156 307.063 125.594C307.375 126.031 307.651 126.495 307.891 126.979C308.125 127.469 308.318 127.969 308.469 128.49C308.615 129.01 308.719 129.542 308.776 130.078C308.833 130.615 308.844 131.156 308.807 131.693C308.771 132.234 308.688 132.766 308.563 133.292C308.432 133.818 308.26 134.328 308.042 134.823L307.974 134.969L263.802 227.354H310.724C312.016 227.354 313.281 227.542 314.516 227.917C315.755 228.286 316.911 228.833 317.99 229.547C319.068 230.26 320.021 231.115 320.844 232.109C321.672 233.104 322.339 234.198 322.844 235.385C323.344 236.578 323.667 237.818 323.807 239.099C323.948 240.385 323.901 241.661 323.661 242.932C323.427 244.208 323.016 245.417 322.422 246.563C321.828 247.714 321.083 248.755 320.182 249.682L197.958 375.849L197.823 375.99C196.964 376.828 195.979 377.484 194.865 377.943C193.755 378.401 192.599 378.641 191.396 378.651ZM186.432 256.047H239.599C240.005 256.047 240.406 256.073 240.807 256.125C241.203 256.177 241.599 256.255 241.99 256.359C242.38 256.464 242.76 256.589 243.135 256.74C243.505 256.896 243.87 257.068 244.219 257.271C244.568 257.469 244.906 257.688 245.229 257.932C245.547 258.172 245.854 258.438 246.141 258.719C246.432 259 246.698 259.302 246.948 259.615C247.198 259.932 247.427 260.266 247.63 260.609C247.839 260.958 248.021 261.318 248.182 261.688C248.344 262.057 248.479 262.432 248.589 262.823C248.698 263.208 248.786 263.604 248.849 264C248.906 264.401 248.943 264.802 248.948 265.203C248.958 265.604 248.943 266.01 248.896 266.411C248.854 266.807 248.786 267.208 248.693 267.599C248.599 267.99 248.479 268.375 248.333 268.75C248.188 269.125 248.021 269.495 247.828 269.849L247.786 269.927L192.708 367.453L313.25 242.984C313.745 242.474 314.057 241.87 314.188 241.172C314.318 240.474 314.245 239.797 313.969 239.146C313.693 238.49 313.26 237.969 312.667 237.573C312.073 237.182 311.422 236.99 310.714 236.99H263.349C262.964 236.99 262.578 236.964 262.193 236.917C261.807 236.87 261.427 236.797 261.052 236.703C260.677 236.609 260.307 236.49 259.948 236.349C259.589 236.208 259.234 236.047 258.896 235.859C258.557 235.677 258.229 235.474 257.911 235.245C257.599 235.021 257.297 234.776 257.01 234.516C256.729 234.255 256.458 233.974 256.208 233.677C255.958 233.385 255.729 233.073 255.516 232.75C255.302 232.427 255.115 232.089 254.943 231.74C254.771 231.396 254.625 231.036 254.5 230.672C254.375 230.307 254.271 229.932 254.193 229.552C254.115 229.172 254.057 228.792 254.026 228.406C253.995 228.021 253.984 227.635 254 227.245C254.016 226.859 254.057 226.474 254.12 226.094C254.182 225.714 254.271 225.333 254.38 224.964C254.49 224.594 254.625 224.229 254.781 223.875L254.849 223.729L298.391 132.698L186.432 256.047Z" fill="#594DE9"/>
</g>
<mask id="mask15_1_118" style="mask-type:luminance" maskUnits="userSpaceOnUse" x="217" y="332" width="107" height="47">
<path d="M217.557 332.448H324V378.667H217.557V332.448Z" fill="white"/>
</mask>
<g mask="url(#mask15_1_118)">
<path d="M191.396 378.651C189.271 378.641 187.375 377.984 185.698 376.682C185.25 376.349 184.839 375.984 184.458 375.578C184.078 375.172 183.74 374.74 183.443 374.271C183.141 373.807 182.885 373.318 182.672 372.802C182.458 372.292 182.297 371.766 182.182 371.219C182.063 370.677 181.995 370.13 181.979 369.578C181.964 369.021 181.995 368.469 182.078 367.922C182.161 367.375 182.292 366.839 182.469 366.313C182.651 365.786 182.875 365.286 183.146 364.802L183.188 364.724L239.115 265.693H185.792C184.875 265.693 183.974 265.557 183.094 265.292C182.214 265.026 181.396 264.641 180.63 264.13C179.865 263.62 179.188 263.016 178.604 262.307C178.016 261.599 177.547 260.823 177.188 259.974C176.828 259.13 176.604 258.25 176.505 257.339C176.406 256.422 176.443 255.516 176.609 254.615C176.781 253.708 177.078 252.849 177.5 252.036C177.922 251.219 178.453 250.484 179.094 249.823L292.703 124.62L292.865 124.443C293.245 124.063 293.661 123.719 294.104 123.406C294.547 123.094 295.01 122.823 295.5 122.594C295.99 122.365 296.495 122.182 297.021 122.036C297.542 121.896 298.073 121.802 298.609 121.75C299.151 121.703 299.688 121.698 300.229 121.74C300.766 121.786 301.297 121.875 301.823 122.01C302.344 122.146 302.854 122.328 303.344 122.552C303.839 122.776 304.307 123.036 304.755 123.344C305.198 123.651 305.62 123.99 306.005 124.37C306.391 124.745 306.745 125.156 307.063 125.594C307.375 126.031 307.651 126.495 307.891 126.979C308.125 127.469 308.318 127.969 308.469 128.49C308.615 129.01 308.719 129.542 308.776 130.078C308.833 130.615 308.844 131.156 308.807 131.693C308.771 132.234 308.688 132.766 308.563 133.292C308.432 133.818 308.26 134.328 308.042 134.823L307.974 134.969L263.802 227.354H310.724C312.016 227.354 313.281 227.542 314.516 227.917C315.755 228.286 316.911 228.833 317.99 229.547C319.068 230.26 320.021 231.115 320.844 232.109C321.672 233.104 322.339 234.198 322.844 235.385C323.344 236.578 323.667 237.818 323.807 239.099C323.948 240.385 323.901 241.661 323.661 242.932C323.427 244.208 323.016 245.417 322.422 246.563C321.828 247.714 321.083 248.755 320.182 249.682L197.958 375.849L197.823 375.99C196.964 376.828 195.979 377.484 194.865 377.943C193.755 378.401 192.599 378.641 191.396 378.651ZM186.432 256.047H239.599C240.005 256.047 240.406 256.073 240.807 256.125C241.203 256.177 241.599 256.255 241.99 256.359C242.38 256.464 242.76 256.589 243.135 256.74C243.505 256.896 243.87 257.068 244.219 257.271C244.568 257.469 244.906 257.688 245.229 257.932C245.547 258.172 245.854 258.438 246.141 258.719C246.432 259 246.698 259.302 246.948 259.615C247.198 259.932 247.427 260.266 247.63 260.609C247.839 260.958 248.021 261.318 248.182 261.688C248.344 262.057 248.479 262.432 248.589 262.823C248.698 263.208 248.786 263.604 248.849 264C248.906 264.401 248.943 264.802 248.948 265.203C248.958 265.604 248.943 266.01 248.896 266.411C248.854 266.807 248.786 267.208 248.693 267.599C248.599 267.99 248.479 268.375 248.333 268.75C248.188 269.125 248.021 269.495 247.828 269.849L247.786 269.927L192.708 367.453L313.25 242.984C313.745 242.474 314.057 241.87 314.188 241.172C314.318 240.474 314.245 239.797 313.969 239.146C313.693 238.49 313.26 237.969 312.667 237.573C312.073 237.182 311.422 236.99 310.714 236.99H263.349C262.964 236.99 262.578 236.964 262.193 236.917C261.807 236.87 261.427 236.797 261.052 236.703C260.677 236.609 260.307 236.49 259.948 236.349C259.589 236.208 259.234 236.047 258.896 235.859C258.557 235.677 258.229 235.474 257.911 235.245C257.599 235.021 257.297 234.776 257.01 234.516C256.729 234.255 256.458 233.974 256.208 233.677C255.958 233.385 255.729 233.073 255.516 232.75C255.302 232.427 255.115 232.089 254.943 231.74C254.771 231.396 254.625 231.036 254.5 230.672C254.375 230.307 254.271 229.932 254.193 229.552C254.115 229.172 254.057 228.792 254.026 228.406C253.995 228.021 253.984 227.635 254 227.245C254.016 226.859 254.057 226.474 254.12 226.094C254.182 225.714 254.271 225.333 254.38 224.964C254.49 224.594 254.625 224.229 254.781 223.875L254.849 223.729L298.391 132.698L186.432 256.047Z" fill="#594DE9"/>
</g>
<mask id="mask16_1_118" style="mask-type:luminance" maskUnits="userSpaceOnUse" x="234" y="310" width="90" height="70">
<path d="M234.37 310.943H324V379.214H234.37V310.943Z" fill="white"/>
</mask>
<g mask="url(#mask16_1_118)">
<path d="M190.875 379.167C188.75 379.156 186.849 378.495 185.172 377.193C184.729 376.865 184.318 376.495 183.938 376.094C183.557 375.688 183.219 375.25 182.917 374.786C182.62 374.318 182.365 373.828 182.151 373.318C181.938 372.802 181.776 372.276 181.656 371.734C181.542 371.193 181.474 370.646 181.458 370.089C181.443 369.536 181.474 368.984 181.557 368.438C181.635 367.891 181.771 367.354 181.948 366.828C182.125 366.302 182.354 365.797 182.625 365.313L182.667 365.234L238.594 266.208H185.271C184.349 266.208 183.453 266.073 182.573 265.807C181.693 265.542 180.87 265.151 180.104 264.646C179.344 264.135 178.667 263.526 178.078 262.818C177.495 262.115 177.021 261.333 176.667 260.49C176.307 259.646 176.078 258.766 175.984 257.849C175.885 256.938 175.922 256.031 176.089 255.125C176.26 254.224 176.552 253.365 176.979 252.547C177.401 251.734 177.932 250.995 178.568 250.339L292.182 125.13L292.344 124.958C292.724 124.578 293.135 124.229 293.578 123.922C294.021 123.609 294.49 123.339 294.979 123.109C295.469 122.88 295.974 122.693 296.495 122.552C297.021 122.411 297.552 122.313 298.089 122.266C298.625 122.214 299.167 122.214 299.703 122.255C300.245 122.297 300.776 122.391 301.297 122.526C301.823 122.661 302.333 122.839 302.823 123.063C303.318 123.286 303.787 123.552 304.229 123.859C304.677 124.161 305.094 124.505 305.484 124.88C305.87 125.26 306.224 125.667 306.537 126.104C306.854 126.547 307.13 127.005 307.37 127.495C307.604 127.979 307.797 128.484 307.948 129.005C308.094 129.526 308.198 130.052 308.255 130.589C308.313 131.13 308.323 131.667 308.287 132.208C308.25 132.745 308.167 133.281 308.042 133.807C307.912 134.328 307.74 134.839 307.521 135.339L307.453 135.479L263.281 227.865H310.198C311.495 227.87 312.76 228.057 313.995 228.427C315.234 228.802 316.391 229.344 317.469 230.063C318.547 230.776 319.5 231.63 320.323 232.625C321.151 233.62 321.813 234.708 322.318 235.901C322.823 237.094 323.146 238.328 323.287 239.615C323.427 240.901 323.38 242.177 323.141 243.448C322.906 244.719 322.49 245.932 321.901 247.078C321.307 248.229 320.563 249.266 319.662 250.198L197.438 376.359L197.297 376.5C196.443 377.344 195.458 377.995 194.344 378.458C193.234 378.917 192.078 379.151 190.875 379.167ZM185.912 256.563H239.078C239.484 256.563 239.885 256.589 240.281 256.641C240.682 256.693 241.078 256.771 241.469 256.87C241.859 256.974 242.24 257.104 242.609 257.255C242.984 257.406 243.349 257.583 243.698 257.781C244.047 257.984 244.385 258.203 244.703 258.448C245.026 258.688 245.333 258.953 245.62 259.234C245.906 259.516 246.177 259.813 246.427 260.13C246.677 260.448 246.901 260.781 247.109 261.125C247.318 261.474 247.5 261.828 247.662 262.198C247.818 262.568 247.953 262.948 248.068 263.333C248.177 263.724 248.266 264.115 248.323 264.516C248.385 264.911 248.422 265.313 248.427 265.719C248.438 266.12 248.417 266.521 248.375 266.922C248.333 267.323 248.266 267.719 248.167 268.109C248.073 268.505 247.953 268.885 247.813 269.266C247.667 269.641 247.5 270.005 247.307 270.359L247.26 270.438L192.188 367.964L312.729 243.5C313.224 242.99 313.537 242.385 313.667 241.688C313.797 240.99 313.724 240.313 313.448 239.656C313.172 239.005 312.734 238.479 312.146 238.089C311.552 237.698 310.901 237.5 310.188 237.5H262.828C262.438 237.5 262.052 237.479 261.672 237.432C261.287 237.38 260.906 237.313 260.531 237.214C260.156 237.12 259.787 237.005 259.427 236.865C259.068 236.724 258.714 236.557 258.375 236.375C258.031 236.193 257.703 235.984 257.391 235.76C257.073 235.536 256.776 235.292 256.49 235.031C256.203 234.766 255.938 234.49 255.688 234.193C255.438 233.896 255.208 233.589 254.995 233.266C254.781 232.938 254.594 232.604 254.422 232.255C254.25 231.906 254.104 231.552 253.979 231.182C253.854 230.818 253.75 230.448 253.672 230.068C253.589 229.688 253.537 229.307 253.5 228.922C253.469 228.531 253.464 228.146 253.479 227.76C253.495 227.375 253.537 226.99 253.599 226.609C253.662 226.224 253.75 225.849 253.859 225.479C253.969 225.104 254.104 224.745 254.255 224.391L254.323 224.245L297.87 133.208L185.912 256.563Z" fill="#594DE9"/>
</g>
<mask id="mask17_1_118" style="mask-type:luminance" maskUnits="userSpaceOnUse" x="223" y="323" width="101" height="56">
<path d="M223.484 323.13H324V378.667H223.484V323.13Z" fill="white"/>
</mask>
<g mask="url(#mask17_1_118)">
<path d="M191.396 378.651C189.271 378.641 187.375 377.984 185.698 376.682C185.25 376.349 184.839 375.984 184.458 375.578C184.078 375.172 183.74 374.74 183.443 374.271C183.141 373.807 182.885 373.318 182.672 372.802C182.458 372.292 182.297 371.766 182.182 371.219C182.063 370.677 181.995 370.13 181.979 369.578C181.964 369.021 181.995 368.469 182.078 367.922C182.161 367.375 182.292 366.839 182.469 366.313C182.651 365.786 182.875 365.286 183.146 364.802L183.188 364.724L239.115 265.693H185.792C184.875 265.693 183.974 265.557 183.094 265.292C182.214 265.026 181.396 264.641 180.63 264.13C179.865 263.62 179.188 263.016 178.604 262.307C178.016 261.599 177.547 260.823 177.188 259.974C176.828 259.13 176.604 258.25 176.505 257.339C176.406 256.422 176.443 255.516 176.609 254.615C176.781 253.708 177.078 252.849 177.5 252.036C177.922 251.219 178.453 250.484 179.094 249.823L292.703 124.62L292.865 124.443C293.245 124.063 293.661 123.719 294.104 123.406C294.547 123.094 295.01 122.823 295.5 122.594C295.99 122.365 296.495 122.182 297.021 122.036C297.542 121.896 298.073 121.802 298.609 121.75C299.151 121.703 299.688 121.698 300.229 121.74C300.766 121.786 301.297 121.875 301.823 122.01C302.344 122.146 302.854 122.328 303.344 122.552C303.839 122.776 304.307 123.036 304.755 123.344C305.198 123.651 305.62 123.99 306.005 124.37C306.391 124.745 306.745 125.156 307.063 125.594C307.375 126.031 307.651 126.495 307.891 126.979C308.125 127.469 308.318 127.969 308.469 128.49C308.615 129.01 308.719 129.542 308.776 130.078C308.833 130.615 308.844 131.156 308.807 131.693C308.771 132.234 308.688 132.766 308.563 133.292C308.432 133.818 308.26 134.328 308.042 134.823L307.974 134.969L263.802 227.354H310.724C312.016 227.354 313.281 227.542 314.516 227.917C315.755 228.286 316.911 228.833 317.99 229.547C319.068 230.26 320.021 231.115 320.844 232.109C321.672 233.104 322.339 234.198 322.844 235.385C323.344 236.578 323.667 237.818 323.807 239.099C323.948 240.385 323.901 241.661 323.661 242.932C323.427 244.208 323.016 245.417 322.422 246.563C321.828 247.714 321.083 248.755 320.182 249.682L197.958 375.849L197.823 375.99C196.964 376.828 195.979 377.484 194.865 377.943C193.755 378.401 192.599 378.641 191.396 378.651ZM186.432 256.047H239.599C240.005 256.047 240.406 256.073 240.807 256.125C241.203 256.177 241.599 256.255 241.99 256.359C242.38 256.464 242.76 256.589 243.135 256.74C243.505 256.896 243.87 257.068 244.219 257.271C244.568 257.469 244.906 257.688 245.229 257.932C245.547 258.172 245.854 258.438 246.141 258.719C246.432 259 246.698 259.302 246.948 259.615C247.198 259.932 247.427 260.266 247.63 260.609C247.839 260.958 248.021 261.318 248.182 261.688C248.344 262.057 248.479 262.432 248.589 262.823C248.698 263.208 248.786 263.604 248.849 264C248.906 264.401 248.943 264.802 248.948 265.203C248.958 265.604 248.943 266.01 248.896 266.411C248.854 266.807 248.786 267.208 248.693 267.599C248.599 267.99 248.479 268.375 248.333 268.75C248.188 269.125 248.021 269.495 247.828 269.849L247.786 269.927L192.708 367.453L313.25 242.984C313.745 242.474 314.057 241.87 314.188 241.172C314.318 240.474 314.245 239.797 313.969 239.146C313.693 238.49 313.26 237.969 312.667 237.573C312.073 237.182 311.422 236.99 310.714 236.99H263.349C262.964 236.99 262.578 236.964 262.193 236.917C261.807 236.87 261.427 236.797 261.052 236.703C260.677 236.609 260.307 236.49 259.948 236.349C259.589 236.208 259.234 236.047 258.896 235.859C258.557 235.677 258.229 235.474 257.911 235.245C257.599 235.021 257.297 234.776 257.01 234.516C256.729 234.255 256.458 233.974 256.208 233.677C255.958 233.385 255.729 233.073 255.516 232.75C255.302 232.427 255.115 232.089 254.943 231.74C254.771 231.396 254.625 231.036 254.5 230.672C254.375 230.307 254.271 229.932 254.193 229.552C254.115 229.172 254.057 228.792 254.026 228.406C253.995 228.021 253.984 227.635 254 227.245C254.016 226.859 254.057 226.474 254.12 226.094C254.182 225.714 254.271 225.333 254.38 224.964C254.49 224.594 254.625 224.229 254.781 223.875L254.849 223.729L298.391 132.698L186.432 256.047Z" fill="#594DE9"/>
</g>
<mask id="mask18_1_118" style="mask-type:luminance" maskUnits="userSpaceOnUse" x="155" y="121" width="149" height="259">
<path d="M155.177 121.333H303.974V379.464H155.177V121.333Z" fill="white"/>
</mask>
<g mask="url(#mask18_1_118)">
<path d="M170.818 379.167C168.693 379.156 166.797 378.495 165.12 377.193C164.672 376.865 164.26 376.495 163.88 376.094C163.505 375.688 163.161 375.25 162.865 374.786C162.562 374.318 162.307 373.828 162.094 373.318C161.885 372.802 161.719 372.276 161.604 371.734C161.484 371.193 161.422 370.646 161.401 370.089C161.385 369.536 161.417 368.984 161.5 368.438C161.583 367.891 161.713 367.354 161.891 366.828C162.073 366.302 162.297 365.797 162.568 365.313L162.615 365.234L218.536 266.208H165.213C164.297 266.208 163.396 266.073 162.516 265.807C161.641 265.542 160.818 265.151 160.052 264.646C159.286 264.135 158.609 263.526 158.026 262.818C157.437 262.115 156.969 261.333 156.609 260.49C156.255 259.646 156.026 258.766 155.927 257.849C155.828 256.938 155.865 256.031 156.036 255.125C156.203 254.224 156.5 253.365 156.922 252.547C157.344 251.734 157.875 250.995 158.516 250.339L272.125 125.13L272.286 124.958C272.672 124.578 273.083 124.229 273.526 123.922C273.969 123.609 274.432 123.339 274.922 123.109C275.417 122.88 275.922 122.693 276.443 122.552C276.964 122.411 277.495 122.313 278.031 122.266C278.573 122.214 279.109 122.214 279.651 122.255C280.187 122.297 280.719 122.391 281.245 122.526C281.766 122.661 282.276 122.839 282.766 123.063C283.26 123.286 283.729 123.552 284.177 123.859C284.625 124.161 285.042 124.505 285.427 124.88C285.812 125.26 286.167 125.667 286.484 126.104C286.802 126.547 287.078 127.005 287.312 127.495C287.547 127.979 287.74 128.484 287.891 129.005C288.042 129.526 288.141 130.052 288.198 130.589C288.255 131.13 288.266 131.667 288.229 132.208C288.193 132.745 288.115 133.281 287.984 133.807C287.854 134.328 287.682 134.839 287.464 135.339L287.396 135.479L243.224 227.865H290.146C291.437 227.87 292.703 228.057 293.943 228.427C295.177 228.802 296.333 229.344 297.411 230.063C298.49 230.776 299.443 231.63 300.271 232.625C301.094 233.62 301.76 234.708 302.266 235.901C302.771 237.094 303.089 238.328 303.229 239.615C303.37 240.901 303.323 242.177 303.089 243.448C302.849 244.719 302.437 245.932 301.844 247.078C301.25 248.229 300.505 249.266 299.609 250.198L177.385 376.359L177.245 376.5C176.385 377.344 175.401 377.995 174.292 378.458C173.177 378.917 172.021 379.151 170.818 379.167ZM165.854 256.563H219.026C219.427 256.563 219.828 256.589 220.229 256.641C220.625 256.693 221.021 256.771 221.411 256.87C221.802 256.974 222.182 257.104 222.557 257.255C222.927 257.406 223.292 257.583 223.641 257.781C223.995 257.984 224.328 258.203 224.651 258.448C224.974 258.688 225.276 258.953 225.568 259.234C225.854 259.516 226.12 259.813 226.37 260.13C226.62 260.448 226.849 260.781 227.052 261.125C227.26 261.474 227.443 261.828 227.604 262.198C227.766 262.568 227.901 262.948 228.01 263.333C228.125 263.724 228.208 264.115 228.271 264.516C228.328 264.911 228.365 265.313 228.375 265.719C228.38 266.12 228.365 266.521 228.323 266.922C228.276 267.323 228.208 267.719 228.115 268.109C228.021 268.505 227.901 268.885 227.755 269.266C227.609 269.641 227.443 270.005 227.25 270.359L227.208 270.438L172.13 367.964L292.672 243.5C293.167 242.99 293.479 242.385 293.615 241.688C293.745 240.99 293.672 240.313 293.391 239.656C293.115 239.005 292.682 238.479 292.089 238.089C291.495 237.698 290.844 237.5 290.135 237.5H242.771C242.385 237.5 242 237.479 241.615 237.432C241.229 237.38 240.849 237.313 240.474 237.214C240.099 237.12 239.729 237.005 239.37 236.865C239.01 236.724 238.661 236.557 238.318 236.375C237.979 236.193 237.651 235.984 237.333 235.76C237.021 235.536 236.719 235.292 236.437 235.031C236.151 234.766 235.88 234.49 235.63 234.193C235.38 233.896 235.151 233.589 234.937 233.266C234.729 232.938 234.536 232.604 234.365 232.255C234.198 231.906 234.047 231.552 233.922 231.182C233.797 230.818 233.693 230.448 233.615 230.068C233.536 229.688 233.479 229.307 233.448 228.922C233.417 228.531 233.406 228.146 233.422 227.76C233.437 227.375 233.479 226.99 233.542 226.609C233.604 226.224 233.693 225.849 233.802 225.479C233.911 225.104 234.047 224.745 234.203 224.391L234.271 224.245L277.812 133.208L165.854 256.563Z" fill="#FFB902"/>
</g>
</svg>
